<mxfile host="app.diagrams.net" modified="2023-02-15T06:34:10.922Z" agent="5.0 (Windows NT 10.0; Win64; x64) AppleWebKit/537.36 (KHTML, like Gecko) Chrome/110.0.0.0 Safari/537.36 Edg/110.0.1587.41" etag="YCRK1Zwsa0q9Xh8drjcD" version="20.8.20" type="github">
  <diagram name="Page-1" id="ytpurdZG77Twx_C-d4Ho">
    <mxGraphModel dx="1002" dy="549" grid="1" gridSize="10" guides="1" tooltips="1" connect="1" arrows="1" fold="1" page="1" pageScale="1" pageWidth="850" pageHeight="1100" math="0" shadow="0">
      <root>
        <mxCell id="0" />
        <mxCell id="1" parent="0" />
        <mxCell id="imZYXL4SkDYVXG_4C4io-42" value="&lt;p style=&quot;line-height: 120%;&quot;&gt;Applying rules to C codes&lt;/p&gt;" style="rounded=0;whiteSpace=wrap;html=1;dashed=1;dashPattern=1 4;fontSize=17;gradientColor=none;labelPosition=center;verticalLabelPosition=middle;align=center;verticalAlign=top;spacingBottom=0;" vertex="1" parent="1">
          <mxGeometry x="432.5" y="100" width="257.5" height="225" as="geometry" />
        </mxCell>
        <mxCell id="imZYXL4SkDYVXG_4C4io-26" value="&lt;p style=&quot;line-height: 120%;&quot;&gt;Reading Coccinelle Rules&lt;/p&gt;" style="rounded=0;whiteSpace=wrap;html=1;dashed=1;dashPattern=1 4;fontSize=17;gradientColor=none;labelPosition=center;verticalLabelPosition=middle;align=center;verticalAlign=top;spacingBottom=0;" vertex="1" parent="1">
          <mxGeometry x="40" width="380" height="370" as="geometry" />
        </mxCell>
        <mxCell id="imZYXL4SkDYVXG_4C4io-22" value="Rule 1" style="rounded=0;whiteSpace=wrap;html=1;align=center;fillColor=#ffe6cc;strokeColor=#d79b00;" vertex="1" parent="1">
          <mxGeometry x="337" y="183" width="60" height="30" as="geometry" />
        </mxCell>
        <mxCell id="imZYXL4SkDYVXG_4C4io-21" value="Rule 1" style="rounded=0;whiteSpace=wrap;html=1;align=center;fillColor=#ffe6cc;strokeColor=#d79b00;" vertex="1" parent="1">
          <mxGeometry x="334" y="179" width="60" height="30" as="geometry" />
        </mxCell>
        <mxCell id="imZYXL4SkDYVXG_4C4io-19" value="" style="rounded=0;whiteSpace=wrap;html=1;fillColor=#dae8fc;strokeColor=#6c8ebf;" vertex="1" parent="1">
          <mxGeometry x="70" y="85" width="100" height="250" as="geometry" />
        </mxCell>
        <mxCell id="imZYXL4SkDYVXG_4C4io-18" value="" style="rounded=0;whiteSpace=wrap;html=1;fillColor=#dae8fc;strokeColor=#6c8ebf;" vertex="1" parent="1">
          <mxGeometry x="60" y="75" width="100" height="250" as="geometry" />
        </mxCell>
        <mxCell id="imZYXL4SkDYVXG_4C4io-3" value="" style="rounded=0;whiteSpace=wrap;html=1;fillColor=#dae8fc;strokeColor=#6c8ebf;" vertex="1" parent="1">
          <mxGeometry x="50" y="65" width="100" height="250" as="geometry" />
        </mxCell>
        <mxCell id="imZYXL4SkDYVXG_4C4io-5" value="Rule 1" style="rounded=0;whiteSpace=wrap;html=1;align=center;fillColor=#ffe6cc;strokeColor=#d79b00;" vertex="1" parent="1">
          <mxGeometry x="70" y="85" width="60" height="30" as="geometry" />
        </mxCell>
        <mxCell id="imZYXL4SkDYVXG_4C4io-6" value="Rule 2" style="rounded=0;whiteSpace=wrap;html=1;align=center;fillColor=#ffe6cc;strokeColor=#d79b00;" vertex="1" parent="1">
          <mxGeometry x="70" y="125" width="60" height="30" as="geometry" />
        </mxCell>
        <mxCell id="imZYXL4SkDYVXG_4C4io-7" value="Rule 3" style="rounded=0;whiteSpace=wrap;html=1;align=center;fillColor=#ffe6cc;strokeColor=#d79b00;" vertex="1" parent="1">
          <mxGeometry x="70" y="165" width="60" height="30" as="geometry" />
        </mxCell>
        <mxCell id="imZYXL4SkDYVXG_4C4io-8" value="Rule n" style="rounded=0;whiteSpace=wrap;html=1;align=center;fillColor=#ffe6cc;strokeColor=#d79b00;" vertex="1" parent="1">
          <mxGeometry x="70" y="265" width="60" height="30" as="geometry" />
        </mxCell>
        <mxCell id="imZYXL4SkDYVXG_4C4io-10" value="Split rules&lt;br&gt;using regex" style="rounded=0;whiteSpace=wrap;html=1;" vertex="1" parent="1">
          <mxGeometry x="210" y="167.5" width="90" height="45" as="geometry" />
        </mxCell>
        <mxCell id="imZYXL4SkDYVXG_4C4io-11" value="72 coccinelle files&lt;br&gt;(expected.cocci)&amp;nbsp;" style="text;html=1;strokeColor=none;fillColor=none;align=center;verticalAlign=middle;whiteSpace=wrap;rounded=0;" vertex="1" parent="1">
          <mxGeometry x="60" y="340" width="100" height="30" as="geometry" />
        </mxCell>
        <mxCell id="imZYXL4SkDYVXG_4C4io-12" value="269 single rules&lt;br&gt;from&lt;br&gt;71 coccinelle files" style="text;html=1;strokeColor=none;fillColor=none;align=center;verticalAlign=middle;whiteSpace=wrap;rounded=0;" vertex="1" parent="1">
          <mxGeometry x="314" y="221" width="100" height="29" as="geometry" />
        </mxCell>
        <mxCell id="imZYXL4SkDYVXG_4C4io-17" value=".&lt;br&gt;.&lt;br&gt;." style="text;html=1;strokeColor=none;fillColor=none;align=center;verticalAlign=middle;whiteSpace=wrap;rounded=0;fontSize=17;" vertex="1" parent="1">
          <mxGeometry x="70" y="205" width="60" height="30" as="geometry" />
        </mxCell>
        <mxCell id="imZYXL4SkDYVXG_4C4io-34" style="edgeStyle=orthogonalEdgeStyle;rounded=0;orthogonalLoop=1;jettySize=auto;html=1;exitX=1;exitY=0.5;exitDx=0;exitDy=0;fontSize=17;" edge="1" parent="1" source="imZYXL4SkDYVXG_4C4io-20" target="imZYXL4SkDYVXG_4C4io-33">
          <mxGeometry relative="1" as="geometry" />
        </mxCell>
        <mxCell id="imZYXL4SkDYVXG_4C4io-20" value="Rule 1" style="rounded=0;whiteSpace=wrap;html=1;align=center;fillColor=#ffe6cc;strokeColor=#d79b00;" vertex="1" parent="1">
          <mxGeometry x="330" y="175" width="60" height="30" as="geometry" />
        </mxCell>
        <mxCell id="imZYXL4SkDYVXG_4C4io-23" value="" style="endArrow=classic;html=1;rounded=0;fontSize=17;exitX=1;exitY=0.5;exitDx=0;exitDy=0;entryX=0;entryY=0.5;entryDx=0;entryDy=0;" edge="1" parent="1" source="imZYXL4SkDYVXG_4C4io-3" target="imZYXL4SkDYVXG_4C4io-10">
          <mxGeometry width="50" height="50" relative="1" as="geometry">
            <mxPoint x="300" y="185" as="sourcePoint" />
            <mxPoint x="350" y="135" as="targetPoint" />
          </mxGeometry>
        </mxCell>
        <mxCell id="imZYXL4SkDYVXG_4C4io-25" value="" style="endArrow=classic;html=1;rounded=0;fontSize=17;exitX=1;exitY=0.5;exitDx=0;exitDy=0;entryX=0;entryY=0.5;entryDx=0;entryDy=0;" edge="1" parent="1" source="imZYXL4SkDYVXG_4C4io-10" target="imZYXL4SkDYVXG_4C4io-20">
          <mxGeometry width="50" height="50" relative="1" as="geometry">
            <mxPoint x="160" y="200" as="sourcePoint" />
            <mxPoint x="220" y="200" as="targetPoint" />
          </mxGeometry>
        </mxCell>
        <mxCell id="imZYXL4SkDYVXG_4C4io-27" value="Rule 1" style="rounded=0;whiteSpace=wrap;html=1;align=center;fillColor=#ffe6cc;strokeColor=#d79b00;" vertex="1" parent="1">
          <mxGeometry x="458.5" y="250" width="60" height="30" as="geometry" />
        </mxCell>
        <mxCell id="imZYXL4SkDYVXG_4C4io-28" value="Rule 1" style="rounded=0;whiteSpace=wrap;html=1;align=center;fillColor=#ffe6cc;strokeColor=#d79b00;" vertex="1" parent="1">
          <mxGeometry x="455.5" y="246" width="60" height="30" as="geometry" />
        </mxCell>
        <mxCell id="imZYXL4SkDYVXG_4C4io-29" value="C before" style="rounded=0;whiteSpace=wrap;html=1;align=center;fillColor=#ffe6cc;strokeColor=#d79b00;" vertex="1" parent="1">
          <mxGeometry x="451.5" y="242" width="60" height="30" as="geometry" />
        </mxCell>
        <mxCell id="imZYXL4SkDYVXG_4C4io-30" value="2613 C files" style="text;html=1;strokeColor=none;fillColor=none;align=center;verticalAlign=middle;whiteSpace=wrap;rounded=0;" vertex="1" parent="1">
          <mxGeometry x="435.5" y="276" width="100" height="30" as="geometry" />
        </mxCell>
        <mxCell id="imZYXL4SkDYVXG_4C4io-33" value="" style="shape=orEllipse;perimeter=ellipsePerimeter;whiteSpace=wrap;html=1;backgroundOutline=1;fontSize=17;gradientColor=none;" vertex="1" parent="1">
          <mxGeometry x="471" y="181" width="20" height="17.5" as="geometry" />
        </mxCell>
        <mxCell id="imZYXL4SkDYVXG_4C4io-35" style="edgeStyle=orthogonalEdgeStyle;rounded=0;orthogonalLoop=1;jettySize=auto;html=1;exitX=0.5;exitY=0;exitDx=0;exitDy=0;fontSize=17;entryX=0.5;entryY=1;entryDx=0;entryDy=0;" edge="1" parent="1" source="imZYXL4SkDYVXG_4C4io-29" target="imZYXL4SkDYVXG_4C4io-33">
          <mxGeometry relative="1" as="geometry">
            <mxPoint x="400" y="200" as="sourcePoint" />
            <mxPoint x="540" y="225" as="targetPoint" />
          </mxGeometry>
        </mxCell>
        <mxCell id="imZYXL4SkDYVXG_4C4io-36" value="Rule 1" style="rounded=0;whiteSpace=wrap;html=1;align=center;fillColor=#ffe6cc;strokeColor=#d79b00;" vertex="1" parent="1">
          <mxGeometry x="599.5" y="183" width="60" height="30" as="geometry" />
        </mxCell>
        <mxCell id="imZYXL4SkDYVXG_4C4io-37" value="Rule 1" style="rounded=0;whiteSpace=wrap;html=1;align=center;fillColor=#ffe6cc;strokeColor=#d79b00;" vertex="1" parent="1">
          <mxGeometry x="596.5" y="179" width="60" height="30" as="geometry" />
        </mxCell>
        <mxCell id="imZYXL4SkDYVXG_4C4io-79" style="edgeStyle=orthogonalEdgeStyle;rounded=0;orthogonalLoop=1;jettySize=auto;html=1;exitX=1;exitY=0.5;exitDx=0;exitDy=0;entryX=0;entryY=0.5;entryDx=0;entryDy=0;fontSize=12;" edge="1" parent="1" source="imZYXL4SkDYVXG_4C4io-38" target="imZYXL4SkDYVXG_4C4io-76">
          <mxGeometry relative="1" as="geometry" />
        </mxCell>
        <mxCell id="imZYXL4SkDYVXG_4C4io-38" value="C before, C after" style="rounded=0;whiteSpace=wrap;html=1;align=center;fillColor=#ffe6cc;strokeColor=#d79b00;" vertex="1" parent="1">
          <mxGeometry x="592.5" y="175" width="60" height="30" as="geometry" />
        </mxCell>
        <mxCell id="imZYXL4SkDYVXG_4C4io-39" style="edgeStyle=orthogonalEdgeStyle;rounded=0;orthogonalLoop=1;jettySize=auto;html=1;exitX=1;exitY=0.5;exitDx=0;exitDy=0;fontSize=17;entryX=0;entryY=0.5;entryDx=0;entryDy=0;" edge="1" parent="1" source="imZYXL4SkDYVXG_4C4io-33" target="imZYXL4SkDYVXG_4C4io-38">
          <mxGeometry relative="1" as="geometry">
            <mxPoint x="400" y="200" as="sourcePoint" />
            <mxPoint x="481" y="200" as="targetPoint" />
          </mxGeometry>
        </mxCell>
        <mxCell id="imZYXL4SkDYVXG_4C4io-40" value="&lt;font style=&quot;font-size: 12px;&quot;&gt;Note: I only apply a rule to a c code that resides in the same folder where the coccinelle file (expected.cocci) is located&lt;/font&gt;" style="text;html=1;strokeColor=none;fillColor=none;align=center;verticalAlign=middle;whiteSpace=wrap;rounded=0;fontSize=17;" vertex="1" parent="1">
          <mxGeometry x="456.75" y="350" width="209" height="30" as="geometry" />
        </mxCell>
        <mxCell id="imZYXL4SkDYVXG_4C4io-41" value="2596 before and after pairs" style="text;html=1;strokeColor=none;fillColor=none;align=center;verticalAlign=middle;whiteSpace=wrap;rounded=0;" vertex="1" parent="1">
          <mxGeometry x="590" y="220" width="65" height="30" as="geometry" />
        </mxCell>
        <mxCell id="imZYXL4SkDYVXG_4C4io-48" value="" style="rounded=0;whiteSpace=wrap;html=1;fillColor=#fff2cc;strokeColor=#d6b656;" vertex="1" parent="1">
          <mxGeometry x="1177.5" y="269" width="100" height="250" as="geometry" />
        </mxCell>
        <mxCell id="imZYXL4SkDYVXG_4C4io-53" value="Change 1" style="rounded=0;whiteSpace=wrap;html=1;align=center;fillColor=#ffe6cc;strokeColor=#d79b00;" vertex="1" parent="1">
          <mxGeometry x="1197.5" y="285" width="60" height="30" as="geometry" />
        </mxCell>
        <mxCell id="imZYXL4SkDYVXG_4C4io-54" value="Change 2" style="rounded=0;whiteSpace=wrap;html=1;align=center;fillColor=#ffe6cc;strokeColor=#d79b00;" vertex="1" parent="1">
          <mxGeometry x="1197.5" y="325" width="60" height="30" as="geometry" />
        </mxCell>
        <mxCell id="imZYXL4SkDYVXG_4C4io-56" value="Change n" style="rounded=0;whiteSpace=wrap;html=1;align=center;fillColor=#ffe6cc;strokeColor=#d79b00;" vertex="1" parent="1">
          <mxGeometry x="1197.5" y="465" width="60" height="30" as="geometry" />
        </mxCell>
        <mxCell id="imZYXL4SkDYVXG_4C4io-57" value=".&lt;br&gt;.&lt;br&gt;." style="text;html=1;strokeColor=none;fillColor=none;align=center;verticalAlign=middle;whiteSpace=wrap;rounded=0;fontSize=17;" vertex="1" parent="1">
          <mxGeometry x="1197.5" y="405" width="60" height="30" as="geometry" />
        </mxCell>
        <mxCell id="imZYXL4SkDYVXG_4C4io-58" value="Rule 1" style="rounded=0;whiteSpace=wrap;html=1;align=center;fillColor=#ffe6cc;strokeColor=#d79b00;" vertex="1" parent="1">
          <mxGeometry x="1410" y="85" width="60" height="30" as="geometry" />
        </mxCell>
        <mxCell id="imZYXL4SkDYVXG_4C4io-69" value="1 &quot;C after&quot; can contain either one or multiple changes" style="text;html=1;strokeColor=none;fillColor=none;align=center;verticalAlign=middle;whiteSpace=wrap;rounded=0;" vertex="1" parent="1">
          <mxGeometry x="1160" y="230" width="135" height="30" as="geometry" />
        </mxCell>
        <mxCell id="imZYXL4SkDYVXG_4C4io-76" value="Postprocessing" style="rounded=0;whiteSpace=wrap;html=1;" vertex="1" parent="1">
          <mxGeometry x="720" y="167.25" width="90" height="45" as="geometry" />
        </mxCell>
        <mxCell id="imZYXL4SkDYVXG_4C4io-81" value="Rule 1" style="rounded=0;whiteSpace=wrap;html=1;align=center;fillColor=#ffe6cc;strokeColor=#d79b00;" vertex="1" parent="1">
          <mxGeometry x="869" y="182.75" width="60" height="30" as="geometry" />
        </mxCell>
        <mxCell id="imZYXL4SkDYVXG_4C4io-82" value="Rule 1" style="rounded=0;whiteSpace=wrap;html=1;align=center;fillColor=#ffe6cc;strokeColor=#d79b00;" vertex="1" parent="1">
          <mxGeometry x="866" y="178.75" width="60" height="30" as="geometry" />
        </mxCell>
        <mxCell id="imZYXL4SkDYVXG_4C4io-84" value="Triplets" style="rounded=0;whiteSpace=wrap;html=1;align=center;fillColor=#ffe6cc;strokeColor=#d79b00;" vertex="1" parent="1">
          <mxGeometry x="862" y="174.75" width="60" height="30" as="geometry" />
        </mxCell>
        <mxCell id="imZYXL4SkDYVXG_4C4io-85" value="3650 triplets of &lt;br&gt;(rule, code before, code after)" style="text;html=1;strokeColor=none;fillColor=none;align=center;verticalAlign=middle;whiteSpace=wrap;rounded=0;" vertex="1" parent="1">
          <mxGeometry x="804" y="219" width="176" height="30" as="geometry" />
        </mxCell>
        <mxCell id="imZYXL4SkDYVXG_4C4io-86" style="edgeStyle=orthogonalEdgeStyle;rounded=0;orthogonalLoop=1;jettySize=auto;html=1;exitX=1;exitY=0.5;exitDx=0;exitDy=0;entryX=0;entryY=0.5;entryDx=0;entryDy=0;fontSize=12;" edge="1" parent="1" source="imZYXL4SkDYVXG_4C4io-76" target="imZYXL4SkDYVXG_4C4io-84">
          <mxGeometry relative="1" as="geometry">
            <mxPoint x="663" y="200" as="sourcePoint" />
            <mxPoint x="730" y="200" as="targetPoint" />
          </mxGeometry>
        </mxCell>
      </root>
    </mxGraphModel>
  </diagram>
</mxfile>
